<?xml version="1.0" encoding="UTF-8"?>
<svg width="18px" height="19px" viewBox="0 0 18 19" version="1.1" xmlns="http://www.w3.org/2000/svg" xmlns:xlink="http://www.w3.org/1999/xlink">
    <title>Facebook_vsp_blue</title>
    <g id="Social-Icons" stroke="none" stroke-width="1" fill="none" fill-rule="evenodd">
        <g id="Facebook_vsp_blue" transform="translate(0.000000, 0.230352)" fill="#0B2335" fill-rule="nonzero">
            <path d="M17.0066193,17.971831 L12.4197107,17.971831 L12.4197107,11.0119137 L14.7594999,11.0119137 L15.110076,8.2998126 L12.4197107,8.2998126 L12.4197107,6.568278 C12.4197107,5.7830415 12.6383918,5.247475 13.7661191,5.247475 L15.204707,5.2469855 L15.204707,2.8212705 C14.9556264,2.7879812 14.1019858,2.7140593 13.1086051,2.7140593 C11.0345673,2.7140593 9.61461142,3.9780746 9.61461142,6.2995157 L9.61461142,8.2998126 L7.26893847,8.2998126 L7.26893847,11.0119137 L9.61461142,11.0119137 L9.61461142,17.971831 L0.993380731,17.971831 C0.444716842,17.971831 0,17.5278101 0,16.9800048 L0,0.9918261 C0,0.4440209 0.444716842,0 0.993380731,0 L17.0066193,0 C17.5552832,0 18,0.4440209 18,0.9918261 L18,16.9800048 C18,17.5278101 17.5552832,17.971831 17.0066193,17.971831 Z" id="Facebook"></path>
        </g>
    </g>
</svg>