<?xml version="1.0" encoding="UTF-8"?>
<svg width="17px" height="17px" viewBox="0 0 17 17" version="1.1" xmlns="http://www.w3.org/2000/svg" xmlns:xlink="http://www.w3.org/1999/xlink">
    <!-- Generator: Sketch 48.2 (47327) - http://www.bohemiancoding.com/sketch -->
    <title>Fill 4</title>
    <desc>Created with Sketch.</desc>
    <defs></defs>
    <g id="Navigation-Authenticated-1800-px-Copy" stroke="none" stroke-width="1" fill="none" fill-rule="evenodd" transform="translate(-1620.000000, -25.000000)">
        <g id="language" transform="translate(1620.000000, 25.000000)" fill="#FFFFFF">
            <g id="globe/line">
                <path d="M14.7639869,3.14194167 C13.6609035,1.86094167 12.2189313,0.964580556 10.5939591,0.550288889 L10.5931119,0.550288889 C9.28076465,0.215636111 7.85404243,0.215636111 6.5416952,0.550288889 C4.91672298,0.964580556 3.47475076,1.86094167 2.37166743,3.14109444 C2.37166743,3.14109444 2.3708202,3.14109444 2.3708202,3.14109444 C1.09405632,4.62458056 0.390014648,6.51812222 0.390014648,8.47435833 C0.390014648,10.4297472 1.09405632,12.3241361 2.3708202,13.806775 C3.47390354,15.087775 4.91587576,15.9832889 6.54084798,16.3975806 L6.5416952,16.3975806 C7.20083409,16.5661778 7.88284798,16.6509 8.56740354,16.6509 C9.25195909,16.6509 9.93397298,16.5661778 10.5931119,16.3975806 C12.2180841,15.9841361 13.6600563,15.087775 14.7631396,13.8076222 C14.7631396,13.8076222 14.7631396,13.8076222 14.7639869,13.806775 C16.0178758,12.3512472 16.720223,10.4915944 16.7422508,8.57009444 C16.7422508,8.55484444 16.735473,8.54128889 16.7337785,8.52603889 C16.7363202,8.50824722 16.7447924,8.49299722 16.7447924,8.47435833 C16.7447924,6.51812222 16.041598,4.62458056 14.7639869,3.14194167 Z M6.88594722,15.7087889 C6.40896111,14.8632611 6.02771111,13.9694417 5.72779444,13.0502056 C6.56739167,12.8900806 7.40868333,12.7968861 8.24150278,12.7782472 L8.24150278,15.8867056 C7.78315556,15.8672194 7.32819722,15.8113028 6.88594722,15.7087889 Z M10.2578917,1.23992778 C10.7382667,2.09223333 11.1229056,2.99198333 11.4245167,3.91969167 C10.6306694,4.06965 9.81394722,4.15776111 8.98282222,4.17894167 L8.98282222,1.06624722 C9.41405833,1.08912222 9.84105833,1.14334444 10.2578917,1.23992778 Z M8.24150278,8.194775 L4.97546111,8.194775 C4.99833611,6.98917778 5.16523889,5.79628889 5.47278056,4.64576111 C6.36914167,4.82198333 7.29515556,4.900775 8.24150278,4.92449722 L8.24150278,8.194775 Z M8.24150278,8.93609444 L8.24150278,12.0216778 C7.29430833,12.0411639 6.36744722,12.1394417 5.48379444,12.3139694 C5.18387778,11.199025 5.02714167,10.0883167 4.9941,8.93609444 L8.24150278,8.93609444 Z M8.98282222,12.0165944 L8.98282222,8.93609444 L12.1480444,8.93609444 C12.1124611,10.0671361 11.9481,11.1871639 11.6575028,12.2783861 C10.842475,12.1224972 9.96051667,12.0360806 8.98282222,12.0165944 Z M8.98282222,8.194775 L8.98282222,4.93635833 C9.89104444,4.91348333 10.781475,4.80419167 11.6481833,4.63559444 C11.9616556,5.79883056 12.1327944,6.99256667 12.1548222,8.194775 L8.98282222,8.194775 Z M12.1666833,3.76295556 C11.925225,3.00808056 11.6312389,2.27015 11.2771,1.561025 C12.2319194,1.93380278 13.0893083,2.50567778 13.8204611,3.24021944 C13.2875583,3.44694167 12.7360167,3.62316389 12.1666833,3.76295556 Z M4.97800278,3.76295556 C4.40782222,3.62316389 3.85628056,3.44694167 3.32337778,3.24021944 C4.05453056,2.50567778 4.91191944,1.93380278 5.86673889,1.561025 C5.5126,2.27099722 5.21861389,3.00892778 4.97800278,3.76295556 Z M4.76111389,4.47208056 C4.43916944,5.68021944 4.26379444,6.929025 4.24091944,8.194775 L1.14855833,8.194775 C1.20955833,6.60199722 1.78058611,5.07106667 2.77946111,3.82649722 C3.41318333,4.08744167 4.07655833,4.30178889 4.76111389,4.47208056 Z M4.25362778,8.93609444 C4.28751667,10.1332194 4.45950278,11.3201778 4.76619722,12.4749417 C4.0791,12.6452333 3.41403056,12.8604278 2.77946111,13.1222194 C1.81871111,11.9250944 1.25276667,10.4636361 1.15703056,8.93609444 L4.25362778,8.93609444 Z M4.96783611,13.1755944 C5.21098889,13.9406361 5.535475,14.6777194 5.89554444,15.3978583 C4.92886389,15.0242333 4.05961389,14.4481222 3.32083611,13.7051083 C3.85289167,13.4992333 4.39935,13.3153861 4.96783611,13.1755944 Z M8.98282222,12.7536778 C9.88341944,12.7714694 10.6815028,12.8621222 11.4346833,13.0010667 C11.132225,13.9380944 10.74335,14.8480111 10.2578917,15.7087889 C9.84105833,15.8053722 9.41405833,15.8587472 8.98282222,15.8824694 L8.98282222,12.7536778 Z M12.1760028,13.1755944 C12.7444889,13.3153861 13.2917944,13.4992333 13.8230028,13.7051083 C13.084225,14.4481222 12.2158222,15.0242333 11.2482944,15.3970111 C11.6083639,14.6777194 11.93285,13.9406361 12.1760028,13.1755944 Z M12.3734056,12.4740944 C12.6817944,11.3193306 12.8622528,10.1323722 12.8978361,8.93609444 L15.9910444,8.93609444 C15.8961556,10.4619417 15.3098778,11.9284833 14.3550583,13.1188306 C13.7213361,12.8578861 13.0579611,12.6435389 12.3734056,12.4740944 Z M12.8978361,8.194775 C12.8749611,6.944275 12.7072111,5.69801111 12.3844194,4.48563611 C13.0723639,4.31534444 13.7416694,4.09591389 14.3779333,3.833275 C15.3708778,5.07360833 15.9351278,6.61046944 15.9952806,8.194775 L12.8978361,8.194775 Z M8.24150278,4.184025 C7.38665556,4.16708056 6.54366944,4.07558056 5.71932222,3.92053889 C6.02093333,2.99283056 6.40557222,2.09223333 6.88594722,1.23992778 C7.32904444,1.13741389 7.78315556,1.08065 8.24150278,1.06116389 L8.24150278,4.184025 Z" id="Fill-4"></path>
            </g>
        </g>
    </g>
</svg>