<svg id="Layer_1" data-name="Layer 1" xmlns="http://www.w3.org/2000/svg" viewBox="0 0 39 39"><defs><style>.cls-1{fill:#9fa1a4;}</style></defs><circle class="cls-1" cx="19.22" cy="19.16" r="3.72"/><path class="cls-1" d="M27.92,12.58a3.41,3.41,0,0,0-.83-1.28,3.28,3.28,0,0,0-1.29-.84,6.24,6.24,0,0,0-2.07-.38C22.56,10,22.2,10,19.22,10s-3.33,0-4.51.07a6.24,6.24,0,0,0-2.07.38,3.77,3.77,0,0,0-2.12,2.12,6.24,6.24,0,0,0-.38,2.07c-.06,1.18-.07,1.53-.07,4.51s0,3.34.07,4.51a6.24,6.24,0,0,0,.38,2.07A3.28,3.28,0,0,0,11.36,27a3.41,3.41,0,0,0,1.28.83,5.92,5.92,0,0,0,2.07.39c1.18.05,1.53.06,4.51.06s3.34,0,4.51-.06a5.92,5.92,0,0,0,2.07-.39,3.62,3.62,0,0,0,2.12-2.12,5.92,5.92,0,0,0,.39-2.07c.05-1.17.06-1.53.06-4.51s0-3.33-.06-4.51A5.92,5.92,0,0,0,27.92,12.58Zm-8.7,12.31A5.73,5.73,0,1,1,25,19.16,5.73,5.73,0,0,1,19.22,24.89Zm6-10.35a1.34,1.34,0,1,1,1.34-1.34A1.34,1.34,0,0,1,25.18,14.54Z"/><path class="cls-1" d="M19.5,0A19.5,19.5,0,1,0,39,19.5,19.5,19.5,0,0,0,19.5,0ZM30.32,23.76a8.49,8.49,0,0,1-.52,2.71,5.72,5.72,0,0,1-3.27,3.27,8.49,8.49,0,0,1-2.71.52c-1.19,0-1.57.06-4.6.06s-3.41,0-4.6-.06a8.49,8.49,0,0,1-2.71-.52,5.59,5.59,0,0,1-2-1.29,5.35,5.35,0,0,1-1.28-2,8,8,0,0,1-.52-2.71c-.06-1.19-.07-1.57-.07-4.6s0-3.41.07-4.6a8,8,0,0,1,.52-2.71,5.62,5.62,0,0,1,3.26-3.26,8,8,0,0,1,2.71-.52C15.81,8,16.19,8,19.22,8s3.41,0,4.6.07a8,8,0,0,1,2.71.52,5.35,5.35,0,0,1,2,1.28,5.59,5.59,0,0,1,1.29,2,8.49,8.49,0,0,1,.52,2.71c.05,1.19.06,1.57.06,4.6S30.37,22.57,30.32,23.76Z"/></svg>