<?xml version="1.0" encoding="UTF-8"?>
<svg width="13px" height="13px" viewBox="0 0 13 13" version="1.1" xmlns="http://www.w3.org/2000/svg" xmlns:xlink="http://www.w3.org/1999/xlink">
    <title>Instagram_vsp_blue</title>
    <g id="Social-Icons" stroke="none" stroke-width="1" fill="none" fill-rule="evenodd">
        <g id="Instagram_vsp_blue" transform="translate(0.000013, 0.025126)" fill="#0B2335" fill-rule="nonzero">
            <g id="Group-3">
                <path d="M6.3290783,0 C4.61021299,0 4.39465451,0.00728577611 3.71961479,0.0380870225 C3.04593174,0.0688128988 2.58587267,0.175813314 2.18327073,0.332281636 C1.76710218,0.494000741 1.41411889,0.710413414 1.06226615,1.06226615 C0.71038829,1.41414401 0.49400074,1.76710217 0.332256512,2.18327073 C0.17578819,2.58587266 0.0688128988,3.04593174 0.0380618991,3.71961479 C0.0072606527,4.39467963 0,4.61018786 0,6.3290783 C0,8.04796873 0.0072606527,8.26350209 0.0380618991,8.93856693 C0.0688128988,9.61222486 0.17578819,10.0723091 0.332256512,10.4748859 C0.49400074,10.8910544 0.71038829,11.2440377 1.06226615,11.5958905 C1.41411889,11.9477683 1.76710218,12.1641559 2.18327073,12.3259252 C2.58587267,12.4823684 3.04593174,12.5893688 3.71961479,12.6201198 C4.39465451,12.650896 4.61021299,12.6581817 6.3290783,12.6581817 C8.04796874,12.6581817 8.26347697,12.650896 8.93854181,12.6201198 C9.61222486,12.5893688 10.0722839,12.4823684 10.4748858,12.3259252 C10.8910795,12.1641559 11.2440377,11.9477683 11.5958904,11.5958905 C11.9477683,11.2440377 12.1641558,10.8910796 12.3259,10.4748859 C12.4823684,10.0723091 12.5893688,9.61222486 12.6200947,8.93856693 C12.6508959,8.26350209 12.6581817,8.04796873 12.6581817,6.3290783 C12.6581817,4.61021298 12.6508959,4.39467963 12.6200947,3.71961479 C12.5893688,3.04593174 12.4823684,2.58587266 12.3259,2.18327073 C12.1641558,1.76710217 11.9477683,1.41414401 11.5958904,1.06226615 C11.2440377,0.710413414 10.8910795,0.494000741 10.4748858,0.332281636 C10.0722839,0.175813314 9.61222486,0.0688128988 8.93854181,0.0380870225 C8.26347697,0.00728577611 8.04796874,0 6.3290783,0 M6.3290783,1.14037469 C8.01902662,1.14037469 8.21918448,1.14680627 8.88656156,1.17725579 C9.50364167,1.20541909 9.83876225,1.30852538 10.0617823,1.39520099 C10.357208,1.51001477 10.5680684,1.64716323 10.7895309,1.86862569 C11.0109933,2.09011329 11.1481418,2.30094857 11.2629807,2.59637423 C11.3496312,2.81939435 11.4527375,3.15451492 11.4809008,3.77159503 C11.5113252,4.43897212 11.5177819,4.6391551 11.5177819,6.3290783 C11.5177819,8.01902662 11.5113252,8.21920959 11.4809008,8.88656156 C11.4527375,9.50366679 11.3496312,9.83878737 11.2629807,10.0618075 C11.1481418,10.357208 11.0109933,10.5680685 10.7895309,10.7895309 C10.5680684,11.0110185 10.357208,11.148167 10.0617823,11.2629808 C9.83876225,11.3496312 9.50364167,11.4527627 8.88656156,11.4809008 C8.21928497,11.5113503 8.01915224,11.5178071 6.3290783,11.5178071 C4.63900436,11.5178071 4.43887163,11.5113503 3.77159504,11.4809008 C3.15451493,11.4527627 2.81936923,11.3496312 2.59634911,11.2629808 C2.30094858,11.148167 2.09008817,11.0110185 1.8686257,10.7895309 C1.64716323,10.5680685 1.50998965,10.357208 1.39517587,10.0618075 C1.30852538,9.83878737 1.20541909,9.50366679 1.1772558,8.88658668 C1.14680628,8.21920959 1.1403747,8.01902662 1.1403747,6.3290783 C1.1403747,4.6391551 1.14680628,4.43897212 1.1772558,3.77159503 C1.20541909,3.15451492 1.30852538,2.81939435 1.39517587,2.59637423 C1.50998965,2.30094857 1.64716323,2.09011329 1.8686257,1.86865082 C2.09008817,1.64716323 2.30094858,1.51001477 2.59634911,1.39520099 C2.81936923,1.30852538 3.15451493,1.20541909 3.77156991,1.17725579 C4.43897213,1.14680627 4.63912998,1.14037469 6.3290783,1.14037469" id="Fill-1"></path>
            </g>
            <path d="M6.3290783,8.43878756 C5.16393197,8.43878756 4.21936879,7.49422438 4.21936879,6.32907805 C4.21936879,5.16393171 5.16393197,4.21939366 6.3290783,4.21939366 C7.49422463,4.21939366 8.43878782,5.16393171 8.43878782,6.32907805 C8.43878782,7.49422438 7.49422463,8.43878756 6.3290783,8.43878756 M6.3290783,3.07901896 C4.53411431,3.07901896 3.07899409,4.53411406 3.07899409,6.32907805 C3.07899409,8.12406716 4.53411431,9.57916226 6.3290783,9.57916226 C8.12404229,9.57916226 9.57913739,8.12406716 9.57913739,6.32907805 C9.57913739,4.53411406 8.12404229,3.07901896 6.3290783,3.07901896" id="Fill-4"></path>
            <path d="M10.4670499,2.95060841 C10.4670499,3.37006813 10.1270302,3.71008776 9.70757054,3.71008776 C9.28811083,3.71008776 8.94806607,3.37006813 8.94806607,2.95060841 C8.94806607,2.5311487 9.28811083,2.19112907 9.70757054,2.19112907 C10.1270302,2.19112907 10.4670499,2.5311487 10.4670499,2.95060841" id="Fill-6"></path>
        </g>
    </g>
</svg>