<svg xmlns="http://www.w3.org/2000/svg" width="16" height="18" viewBox="0 0 16 18">
    <g fill="none" fill-rule="evenodd">
        <path fill="#FFF" d="M1.444 14.601c-.185 0-.335-.16-.335-.358 0-1.508 1.055-2.266 1.85-2.705.76-.422 1.256-.561 1.694-.685.47-.132.84-.236 1.431-.685a.321.321 0 0 1 .467.084.375.375 0 0 1-.079.5c-.69.525-1.156.656-1.648.794a6.443 6.443 0 0 0-1.558.627c-1.029.57-1.487 1.208-1.487 2.07 0 .197-.15.358-.335.358"/>
        <path stroke="#FFF" stroke-width=".45" d="M1.444 14.601c-.185 0-.335-.16-.335-.358 0-1.508 1.055-2.266 1.85-2.705.76-.422 1.256-.561 1.694-.685.47-.132.84-.236 1.431-.685a.321.321 0 0 1 .467.084.375.375 0 0 1-.079.5c-.69.525-1.156.656-1.648.794a6.443 6.443 0 0 0-1.558.627c-1.029.57-1.487 1.208-1.487 2.07 0 .197-.15.358-.335.358z"/>
        <path fill="#FFF" d="M15.325 14.601c-.185 0-.335-.16-.335-.358 0-.862-.459-1.5-1.487-2.07a6.443 6.443 0 0 0-1.558-.627c-.493-.138-.959-.27-1.649-.794a.375.375 0 0 1-.078-.5.321.321 0 0 1 .466-.084c.59.45.962.553 1.432.685.437.124.934.263 1.694.685.794.439 1.85 1.197 1.85 2.705 0 .197-.15.358-.335.358"/>
        <path stroke="#FFF" stroke-width=".45" d="M15.325 14.601c-.185 0-.335-.16-.335-.358 0-.862-.459-1.5-1.487-2.07a6.443 6.443 0 0 0-1.558-.627c-.493-.138-.959-.27-1.649-.794a.375.375 0 0 1-.078-.5.321.321 0 0 1 .466-.084c.59.45.962.553 1.432.685.437.124.934.263 1.694.685.794.439 1.85 1.197 1.85 2.705 0 .197-.15.358-.335.358z"/>
        <path fill="#FFF" d="M8.305 9.984c-1.377 0-1.9-1.107-2.362-2.085-.064-.137-.13-.275-.198-.412a2.011 2.011 0 0 0-.159-.096c-.185-.106-.376-.214-.45-.412-.19-.502-.294-1.227-.312-1.722-.008-.252.168-.355.46-.526l.115-.068c-.003-.4-.014-.69-.022-.909-.01-.295-.017-.472.008-.632.201-1.336 1.184-2.013 2.92-2.013.186 0 .337.158.337.354a.346.346 0 0 1-.337.355c-1.83 0-2.163.807-2.255 1.415-.013.09-.007.252.001.494.01.255.022.605.022 1.111 0 .242-.174.344-.46.512l-.105.061c.03.4.114.908.236 1.258a2.2 2.2 0 0 0 .163.098c.172.098.335.19.417.354.077.154.15.31.223.463.495 1.049.845 1.692 1.758 1.692.186 0 .337.158.337.354a.346.346 0 0 1-.337.354"/>
        <path stroke="#FFF" stroke-width=".45" d="M8.305 9.984c-1.377 0-1.9-1.107-2.362-2.085-.064-.137-.13-.275-.198-.412a2.011 2.011 0 0 0-.159-.096c-.185-.106-.376-.214-.45-.412-.19-.502-.294-1.227-.312-1.722-.008-.252.168-.355.46-.526l.115-.068c-.003-.4-.014-.69-.022-.909-.01-.295-.017-.472.008-.632.201-1.336 1.184-2.013 2.92-2.013.186 0 .337.158.337.354a.346.346 0 0 1-.337.355c-1.83 0-2.163.807-2.255 1.415-.013.09-.007.252.001.494.01.255.022.605.022 1.111 0 .242-.174.344-.46.512l-.105.061c.03.4.114.908.236 1.258a2.2 2.2 0 0 0 .163.098c.172.098.335.19.417.354.077.154.15.31.223.463.495 1.049.845 1.692 1.758 1.692.186 0 .337.158.337.354a.346.346 0 0 1-.337.354z"/>
        <path fill="#FFF" d="M8.365 9.984a.346.346 0 0 1-.337-.354c0-.196.151-.354.337-.354.913 0 1.262-.643 1.757-1.69.073-.155.147-.31.224-.465.082-.164.245-.256.417-.354.048-.027.123-.07.163-.098.122-.35.205-.857.236-1.258a6.625 6.625 0 0 0-.105-.061c-.286-.168-.459-.27-.46-.511 0-.506.013-.856.022-1.11.008-.244.014-.405 0-.496-.091-.608-.425-1.415-2.254-1.415a.346.346 0 0 1-.337-.355c0-.196.151-.354.337-.354 1.737 0 2.719.677 2.92 2.013.025.16.018.338.008.634-.008.218-.019.508-.021.907l.114.068c.292.171.469.275.46.526-.018.495-.121 1.219-.311 1.722-.075.198-.266.306-.451.412-.051.028-.123.07-.159.096-.068.137-.134.276-.199.413-.46.977-.984 2.084-2.36 2.084"/>
        <path stroke="#FFF" stroke-width=".45" d="M8.365 9.984a.346.346 0 0 1-.337-.354c0-.196.151-.354.337-.354.913 0 1.262-.643 1.757-1.69.073-.155.147-.31.224-.465.082-.164.245-.256.417-.354.048-.027.123-.07.163-.098.122-.35.205-.857.236-1.258a6.625 6.625 0 0 0-.105-.061c-.286-.168-.459-.27-.46-.511 0-.506.013-.856.022-1.11.008-.244.014-.405 0-.496-.091-.608-.425-1.415-2.254-1.415a.346.346 0 0 1-.337-.355c0-.196.151-.354.337-.354 1.737 0 2.719.677 2.92 2.013.025.16.018.338.008.634-.008.218-.019.508-.021.907l.114.068c.292.171.469.275.46.526-.018.495-.121 1.219-.311 1.722-.075.198-.266.306-.451.412-.051.028-.123.07-.159.096-.068.137-.134.276-.199.413-.46.977-.984 2.084-2.36 2.084z"/>
        <path fill="#FFF" d="M8.304 17.26c-2.845 0-5.297-.956-7.09-2.765a.384.384 0 0 1-.017-.51.313.313 0 0 1 .47-.019c1.667 1.682 3.962 2.572 6.637 2.572 2.918 0 5.204-.85 6.795-2.527a.312.312 0 0 1 .469.008.383.383 0 0 1-.007.51c-1.72 1.812-4.16 2.73-7.257 2.73"/>
        <path stroke="#FFF" stroke-width=".45" d="M8.304 17.26c-2.845 0-5.297-.956-7.09-2.765a.384.384 0 0 1-.017-.51.313.313 0 0 1 .47-.019c1.667 1.682 3.962 2.572 6.637 2.572 2.918 0 5.204-.85 6.795-2.527a.312.312 0 0 1 .469.008.383.383 0 0 1-.007.51c-1.72 1.812-4.16 2.73-7.257 2.73z"/>
    </g>
</svg>
