<svg id="Layer_1" data-name="Layer 1" xmlns="http://www.w3.org/2000/svg" viewBox="0 0 39 39"><defs><style>.cls-1{fill:#9fa1a4;}</style></defs><path class="cls-1" d="M19.51,0A19.47,19.47,0,1,1,14,38.1a16.88,16.88,0,0,0,2-4.17c.23-.86,1.36-5.35,1.36-5.35A5.6,5.6,0,0,0,22.08,31c6.26,0,10.51-5.71,10.51-13.35,0-5.77-4.9-11.15-12.33-11.15C11,6.51,6.35,13.14,6.35,18.67c0,3.35,1.26,6.33,4,7.44a.67.67,0,0,0,1-.49c.09-.34.3-1.2.39-1.56A.92.92,0,0,0,11.42,23a5.67,5.67,0,0,1-1.28-3.83,9.22,9.22,0,0,1,9.59-9.32c5.22,0,8.1,3.2,8.1,7.46,0,5.62-2.49,10.35-6.18,10.35a3,3,0,0,1-3.07-3.75c.59-2.46,1.72-5.12,1.72-6.9,0-1.6-.86-2.93-2.63-2.93-2.08,0-3.75,2.16-3.75,5a7.48,7.48,0,0,0,.62,3.08L12,32.79a16.85,16.85,0,0,0-.34,4.47A19.47,19.47,0,0,1,19.51,0"/></svg>