<?xml version="1.0" encoding="UTF-8"?>
<svg width="17px" height="17px" viewBox="0 0 17 17" version="1.1" xmlns="http://www.w3.org/2000/svg" xmlns:xlink="http://www.w3.org/1999/xlink">
    <!-- Generator: Sketch 48.2 (47327) - http://www.bohemiancoding.com/sketch -->
    <title>Fill 3</title>
    <desc>Created with Sketch.</desc>
    <defs></defs>
    <g id="Article" stroke="none" stroke-width="1" fill="none" fill-rule="evenodd" transform="translate(-1149.000000, -86.000000)">
        <g id="search/line" transform="translate(945.000000, 79.000000)" fill="white" stroke="white" stroke-width="0.3">
            <path d="M216.09691,17.701813 L216.058922,17.6644269 L215.398393,18.3280307 L214.806087,17.7329681 C215.72168,16.7095227 216.284525,15.3620641 216.284525,13.8806385 C216.284525,10.6973649 213.706756,8.10759615 210.538232,8.10759615 C207.369708,8.10759615 204.791939,10.6973649 204.791939,13.8806385 C204.791939,17.0639121 207.369708,19.6536808 210.538232,19.6536808 C212.012018,19.6536808 213.354008,19.0882155 214.372712,18.1683608 L214.965017,18.7634234 L214.411475,19.3195422 L214.373487,19.3577072 L218.164552,23.1664197 L218.291696,23.1664197 C219.151469,23.1664197 219.850762,22.4646508 219.850762,21.6008753 L219.850762,21.4731393 L216.09691,17.701813 Z M215.667686,13.8806385 C215.667686,16.7243213 213.364362,19.0383673 210.533855,19.0383673 C207.703348,19.0383673 205.400024,16.7243213 205.400024,13.8806385 C205.400024,11.0369556 207.703348,8.72290962 210.533855,8.72290962 C213.364362,8.72290962 215.667686,11.0369556 215.667686,13.8806385 Z" id="Fill-3"></path>
        </g>
    </g>
</svg>
