<?xml version="1.0" encoding="UTF-8"?>
<svg width="16px" height="17px" viewBox="0 0 16 17" version="1.1" xmlns="http://www.w3.org/2000/svg" xmlns:xlink="http://www.w3.org/1999/xlink">
    <title>search</title>
    <g id="Social-Icons" stroke="none" stroke-width="1" fill="none" fill-rule="evenodd">
        <g id="search" transform="translate(0.791939, 1.107596)" fill="#0B2335" fill-rule="nonzero" stroke="#0B2335" stroke-width="0.3">
            <path d="M11.304971,9.59421685 L11.266983,9.55683075 L10.606454,10.2204346 L10.014148,9.62537195 C10.929741,8.60192655 11.492586,7.25446795 11.492586,5.77304235 C11.492586,2.58976875 8.914817,0 5.746293,0 C2.577769,0 0,2.58976875 0,5.77304235 C0,8.95631595 2.577769,11.5460847 5.746293,11.5460847 C7.220079,11.5460847 8.562069,10.9806194 9.580773,10.0607646 L10.173078,10.6558273 L9.619536,11.2119461 L9.581548,11.2501111 L13.372613,15.0588235 L13.499757,15.0588235 C14.35953,15.0588235 15.058823,14.3570547 15.058823,13.4932791 L15.058823,13.3655432 L11.304971,9.59421685 Z M10.875747,5.77304235 C10.875747,8.61672515 8.572423,10.9307712 5.741916,10.9307712 C2.911409,10.9307712 0.608085,8.61672515 0.608085,5.77304235 C0.608085,2.92935945 2.911409,0.61531347 5.741916,0.61531347 C8.572423,0.61531347 10.875747,2.92935945 10.875747,5.77304235 Z" id="Fill-3"></path>
        </g>
    </g>
</svg>