<svg id="Layer_1" data-name="Layer 1" xmlns="http://www.w3.org/2000/svg" viewBox="0 0 39 39"><defs><style>.cls-1{fill:#9fa1a4;}</style></defs><path class="cls-1" d="M19.5,0A19.5,19.5,0,1,0,39,19.5,19.5,19.5,0,0,0,19.5,0Zm9.84,15.5c0,.21,0,.42,0,.63a13.75,13.75,0,0,1-14,13.71A14.2,14.2,0,0,1,7.8,27.68,11.17,11.17,0,0,0,9,27.74a10,10,0,0,0,6.12-2.06,4.9,4.9,0,0,1-4.6-3.35,4.7,4.7,0,0,0,.92.09,5,5,0,0,0,1.3-.17,4.85,4.85,0,0,1-4-4.73v-.06a5,5,0,0,0,2.23.6,4.79,4.79,0,0,1-2.19-4,4.66,4.66,0,0,1,.67-2.42,14.07,14.07,0,0,0,10.15,5,4.34,4.34,0,0,1-.13-1.09,4.87,4.87,0,0,1,4.92-4.83A5,5,0,0,1,28,12.27a10.11,10.11,0,0,0,3.12-1.17A4.84,4.84,0,0,1,29,13.77,10.38,10.38,0,0,0,31.8,13,10,10,0,0,1,29.34,15.5Z"/></svg>