<?xml version="1.0" encoding="UTF-8"?>
<svg width="18px" height="15px" viewBox="0 0 18 15" version="1.1" xmlns="http://www.w3.org/2000/svg" xmlns:xlink="http://www.w3.org/1999/xlink">
    <title>Twitter_vsp_blue</title>
    <g id="Social-Icons" stroke="none" stroke-width="1" fill="none" fill-rule="evenodd">
        <g id="Twitter_vsp_blue" transform="translate(0.000000, -0.000000)" fill="#0B2335" fill-rule="nonzero">
            <path d="M17.4997011,0.277292644 C16.7856825,0.709542941 15.9967064,1.0242557 15.1534342,1.19312596 C14.4816994,0.458636276 13.5216663,0 12.458807,0 C10.4214996,0 8.76810943,1.69254057 8.76810943,3.77991131 C8.76810943,4.07639376 8.79982223,4.36424079 8.86324784,4.64105369 C5.79479394,4.48321757 3.07470036,2.97969656 1.2526557,0.690353139 C0.934566684,1.25069537 0.752938814,1.90027018 0.752938814,2.59254229 C0.752938814,3.90320579 1.40449276,5.06083062 2.39575809,5.73871039 C1.79129285,5.72048007 1.2209429,5.5482516 0.722187005,5.26712099 L0.722187005,5.31365626 C0.722187005,7.14580264 1.99502358,8.67379065 3.68541206,9.02016658 C3.37597199,9.10843967 3.04923402,9.15305596 2.71240562,9.15305596 C2.4745596,9.15305596 2.24247954,9.13050795 2.01760694,9.08589166 C2.48753302,10.5870139 3.85022254,11.6803529 5.46613398,11.7096174 C4.20290734,12.7242782 2.61005976,13.328757 0.880751019,13.328757 C0.582842873,13.328757 0.288298206,13.3114861 0,13.2769445 C1.63368983,14.3477355 3.57537825,14.9738028 5.65977428,14.9738028 C12.4515995,14.9738028 16.1643999,9.21446333 16.1643999,4.21935779 C16.1643999,4.05480523 16.1615169,3.89025268 16.1552705,3.72905834 C16.8764965,3.19606158 17.5030646,2.53065518 17.9960545,1.77265799 C17.3348906,2.07345814 16.622794,2.27687005 15.8761017,2.36754186 C16.6386504,1.90027018 17.2238958,1.15954381 17.4997011,0.277292644" id="Twitter"></path>
        </g>
    </g>
</svg>