<svg id="Layer_1" data-name="Layer 1" xmlns="http://www.w3.org/2000/svg" viewBox="0 0 39 39"><defs><style>.cls-1{fill:#9fa1a4;}</style></defs><path class="cls-1" d="M19.5,0A19.5,19.5,0,1,0,39,19.5,19.5,19.5,0,0,0,19.5,0ZM32.37,25.76a3.29,3.29,0,0,1-2.32,2.33c-2.05.56-10.26.56-10.26.56s-8.21,0-10.26-.56a3.29,3.29,0,0,1-2.32-2.33,34.51,34.51,0,0,1-.55-6.36A34.51,34.51,0,0,1,7.21,13,3.3,3.3,0,0,1,9.53,10.7c2.05-.55,10.26-.55,10.26-.55s8.21,0,10.26.55A3.3,3.3,0,0,1,32.37,13a34.51,34.51,0,0,1,.55,6.36A34.51,34.51,0,0,1,32.37,25.76Z"/><polygon class="cls-1" points="17.11 23.3 23.97 19.4 17.11 15.49 17.11 23.3"/></svg>